<?xml version="1.0" standalone="no"?><!DOCTYPE svg PUBLIC "-//W3C//DTD SVG 1.1//EN" "http://www.w3.org/Graphics/SVG/1.1/DTD/svg11.dtd"><svg t="1618834351043" class="icon" viewBox="0 0 1024 1024" version="1.1" xmlns="http://www.w3.org/2000/svg" p-id="4179" xmlns:xlink="http://www.w3.org/1999/xlink" width="200" height="200"><defs><style type="text/css"></style></defs><path d="M984.782813 971.396945L764.184603 750.798734c0.428765-0.425695 0.867764-0.837064 1.294482-1.264806 38.772049-38.772049 69.213361-83.924411 90.479711-134.202515 22.021549-52.062749 33.186843-107.359146 33.186843-164.352185 0-56.993039-11.165294-112.288412-33.186843-164.351162-21.266349-50.279127-51.707662-95.432513-90.479711-134.203538S681.554674 83.211167 631.275547 61.943794C579.212798 39.923268 523.916401 28.757974 466.923362 28.757974c-56.993039 0-112.288412 11.165294-164.351162 33.18582-50.279127 21.266349-95.432513 51.708686-134.203538 90.479711s-69.213361 83.924411-90.479711 134.203538c-22.020526 52.062749-33.18582 107.358123-33.18582 164.351162 0 56.993039 11.165294 112.289436 33.18582 164.352185 21.266349 50.279127 51.708686 95.431489 90.479711 134.202515s83.924411 69.213361 134.203538 90.47971c52.062749 22.021549 107.358123 33.186843 164.351162 33.186844 56.993039 0 112.289436-11.165294 164.352185-33.186844 40.920992-17.308201 78.444607-40.696888 111.898533-69.704548l221.348294 221.348294c2.796696 2.796696 6.463202 4.196579 10.129708 4.196579s7.333012-1.39886 10.129708-4.196579c5.596462-5.594415 5.596462-14.666024 0.001023-20.259416zM466.923362 844.547909c-217.014592 0-393.567657-176.554088-393.567657-393.568681S249.909793 57.410548 466.923362 57.410548 860.492042 233.964636 860.492042 450.979228 683.937954 844.547909 466.923362 844.547909z" fill="#515151" p-id="4180"></path></svg>