<?xml version="1.0" standalone="no"?><!DOCTYPE svg PUBLIC "-//W3C//DTD SVG 1.1//EN" "http://www.w3.org/Graphics/SVG/1.1/DTD/svg11.dtd"><svg t="1620895416618" class="icon" viewBox="0 0 1024 1024" version="1.1" xmlns="http://www.w3.org/2000/svg" p-id="2584" xmlns:xlink="http://www.w3.org/1999/xlink" width="200" height="200"><defs><style type="text/css"></style></defs><path d="M901.661186 375.839901l0 448.717721c0 41.879829-41.712007 75.834152-83.921341 75.834152L198.764438 900.391774c-42.209334 0-76.42767-33.955346-76.42767-75.834152L122.336768 375.839901 901.661186 375.839901zM709.449489 315.891554 314.548464 315.891554c32.432667-61.748343 113.251344-197.377346 197.451024-197.377346C596.198146 118.514207 677.017846 254.143211 709.449489 315.891554zM62.389444 871.121124c0 49.262984 40.263006 89.220021 89.922009 89.220021l719.376071 0c49.65798 0 89.922009-39.957037 89.922009-89.220021L961.609533 315.891554 779.511171 315.891554c-37.613666-72.65167-143.181003-252.232698-267.511683-252.232698s-229.898017 179.581028-267.512706 252.232698L62.389444 315.891554 62.389444 871.121124zM721.817168 465.761909l0 59.948347 59.948347 0 0-59.948347L721.817168 465.761909zM242.233462 465.761909l0 59.948347 59.948347 0 0-59.948347L242.233462 465.761909z" p-id="2585" fill="#dc6c61"></path></svg>